<svg width="79" height="152" viewBox="0 0 79 152" fill="none" xmlns="http://www.w3.org/2000/svg">
<path fill-rule="evenodd" clip-rule="evenodd" d="M63.1614 15.6374L63.1627 15.6383L63.1666 15.6492L63.1614 15.6374ZM77.2486 32.4788C77.1539 32.3026 77.0376 32.1119 76.9009 31.909C76.5807 31.4337 76.1708 30.9233 75.7251 30.4184C74.8337 29.4084 73.8247 28.4485 73.1707 27.8763L73.1937 27.85C70.0587 26.4606 67.569 24.1698 65.6943 21.7839C63.6799 19.2201 62.3536 16.5188 61.6856 14.6329C60.8075 14.0646 59.9025 13.5304 58.972 13.038C54.5057 10.6742 49.4501 9.26807 43.9562 9.65776C44.1703 7.99974 44.6267 5.33663 45.4895 1.19523L45.7385 0L44.7226 0.677232C40.2686 3.64659 38.0716 7.63611 37.1048 11.0607C37.0608 11.0756 37.0168 11.0906 36.9727 11.1058C36.9402 11.2199 36.9138 11.3395 36.8905 11.4639C36.8673 11.5877 36.8476 11.7131 36.8276 11.8418L36.8264 11.8495C36.8106 11.951 36.7944 12.0546 36.7764 12.1573L36.7943 12.3328C36.4693 13.9089 36.4021 15.3055 36.4761 16.3428L33.9724 12.3172C32.4586 13.0185 30.9222 13.8675 29.3657 14.878C28.6043 15.3722 27.8631 15.9055 27.1416 16.4756L31.1433 22.3718L24.6549 18.6575C22.3779 20.8633 20.3185 23.4565 18.4588 26.3491L24.1757 30.0181L16.7681 29.155C15.3734 31.6223 14.1039 34.265 12.9503 37.0375L19.1864 40.9356L11.7207 40.1558C10.9071 42.3331 10.1586 44.5757 9.47113 46.8636L16.2291 50.3446L8.52415 50.1824C8.10459 51.7319 7.71122 53.2972 7.34278 54.8724C7.19906 55.4869 7.05918 56.1027 6.92307 56.7194L14.2096 59.6512L6.1899 60.2301C5.63587 63.0379 5.15629 65.851 4.74392 68.6353L12.2146 71.7188L4.24686 72.2226C3.9196 74.756 3.6466 77.2526 3.42227 79.6859L11.0024 81.3682L3.1231 83.2647C2.90087 86.227 2.75068 89.0692 2.66145 91.7392L9.99995 93.3579L2.57821 95.1544C2.54861 97.1189 2.55343 98.9638 2.58734 100.664L20.8298 111.018C21.7278 111.476 22.7827 112.991 22.335 115.4C21.8873 117.809 19.9509 121.111 14.915 125.341C10.0313 129.444 9.08439 133.474 9.77072 136.819C10.45 140.13 12.7511 142.878 14.7398 144.438V144.593L10.55 144.593L9.99996 144.593L9.54997 144.593V145.593H9.55868V151.592H73V151.593H74V149.593V144.593H68.7661V144.457H68.9307C70.0378 143.636 71.5846 142.104 72.7339 140.085C73.925 137.992 74.6735 135.407 74.1032 132.555C73.3838 128.96 71.0999 126.05 68.2608 123.519C66.2231 121.703 63.9443 120.118 61.792 118.622L61.7912 118.621L61.7905 118.621L61.7865 118.618L61.7805 118.614C60.9256 118.019 60.0909 117.439 59.2993 116.863C58.1537 116.03 57.4211 115.183 57.0254 114.326C56.6255 113.46 56.5853 112.617 56.7691 111.832C57.1265 110.305 58.3319 109.013 59.2399 108.105L59.3124 108.032L59.4077 107.994L59.4178 107.99L59.4242 107.987L59.4319 107.984L59.4433 107.978L59.46 107.97L59.4726 107.964L59.4874 107.956L59.507 107.945L59.5324 107.931L59.557 107.917L59.5833 107.902L59.5979 107.894L59.6245 107.878L59.6469 107.864L59.6755 107.847L59.7107 107.825L59.7498 107.801L59.7789 107.782C59.971 107.661 60.2133 107.498 60.5152 107.294L60.6648 107.193L60.6654 107.193L60.6659 107.192L60.6671 107.191C61.2515 106.797 62.0194 106.278 62.9875 105.662C65.0417 104.355 67.9944 102.613 72.0415 100.668C71.1684 95.439 68.03 89.0516 64.5662 83.3559C61.0293 77.54 57.1968 72.5149 55.2197 70.2907L55.097 70.1529L54.9391 69.976L54.6456 69.6478L54.6436 69.6456L54.6433 69.6452L54.6432 69.645C52.3648 67.0979 47.803 61.9979 44.3735 56.6925C42.5005 53.795 40.9397 50.7984 40.2856 48.0965C39.6312 45.3934 39.8631 42.871 41.7507 41.0945L42.104 40.762L42.447 41.105C42.9444 41.6024 43.7336 41.9376 44.7417 42.1196C45.7418 42.3003 46.903 42.3205 48.0822 42.2349C50.3462 42.0704 52.5894 41.5226 53.7466 41.0609C53.7535 41.0517 53.7605 41.0427 53.7677 41.0338C53.7766 41.0227 53.7857 41.0119 53.7948 41.0014C53.8087 40.9856 53.8227 40.9704 53.8369 40.9558L53.8471 40.9454C53.8553 40.9372 53.8636 40.9293 53.8718 40.9215L53.8897 40.9049L53.906 40.8903C54.0214 40.7888 54.1607 40.7018 54.3116 40.6288C54.6139 40.4825 55.0033 40.3728 55.4518 40.324C56.3536 40.2259 57.5332 40.3694 58.817 41.0113L58.987 41.0964L59.0577 41.2729C59.2005 41.6299 59.592 42.0493 60.2659 42.5054C60.9249 42.9515 61.7893 43.3901 62.777 43.8111C64.7207 44.6395 67.0777 45.3727 69.1333 45.9504L69.1879 45.9445L69.2222 45.941L69.2743 45.9358L69.3437 45.9292L69.4321 45.9211L69.5513 45.9108L69.7216 45.8964L69.7452 45.8945L69.7534 45.8937C71.0415 45.7863 73.0508 45.6188 75.1306 44.5839L74.5149 42.1213L74.3596 41.5H75H78.0718C78.0975 41.4076 78.1215 41.3132 78.1437 41.2167C78.3818 40.1819 78.4095 38.9548 78.2954 37.6651C78.1375 35.8801 77.7126 34.0234 77.2486 32.4788ZM2.28637 80.8169L2.28864 80.922L2.29101 81.0137L2.29342 81.0963L2.31861 80.8025C2.30905 80.8071 2.29827 80.812 2.28637 80.8169ZM52.3596 65.5314L52.3813 65.4982L52.3383 65.4631L52.2833 65.418C52.2597 65.3986 52.2362 65.3791 52.2129 65.3596L52.3596 65.5314ZM42.1021 42.1703L42.1039 42.1709L42.1281 42.1788L42.1564 42.1884L42.1715 42.1937L42.1838 42.1981L42.1844 42.1983L42.1888 42.1998L42.2138 42.2085L42.2029 42.2009L42.185 42.1882L42.1547 42.1663L42.1249 42.1442L42.1021 42.1703ZM0.564477 98.3868L0.56878 98.3723L0.573099 98.3576L0.584665 98.3173C0.590372 98.2968 0.594553 98.2809 0.597589 98.2683C0.604288 98.2406 0.605478 98.2289 0.605478 98.22V98.2189V98.2178V98.2166V98.2155V98.2143V98.2132V98.2121V98.211V98.2098V98.2087V98.2076V98.2064V98.2053V98.2042V98.2031V98.2019L0.595865 98.2158L0.59028 98.2406L0.586893 98.2563L0.582605 98.2771L0.580484 98.2878L0.574792 98.3185L0.572198 98.3337L0.569238 98.3525L0.567163 98.3667L0.564477 98.3868ZM0.000832886 103.474C-0.000570923 103.474 -0.000296265 103.474 0.00185522 103.474L0.000832886 103.474ZM44.1221 51.5485L44.1136 51.5469L44.1055 51.5456L44.0981 51.5444C44.1057 51.5278 44.1121 51.5117 44.1175 51.4961L44.1344 51.5511L44.1305 51.5503L44.1221 51.5485ZM42.5374 47.0401L42.5371 46.9233L42.5415 46.9423L42.5485 46.9712L42.5527 46.9874L42.5585 47.0091L42.5374 47.0401ZM65.0781 71.4304L65.0982 71.4477L65.1065 71.4548L65.1225 71.4682L65.1353 71.4788L65.1419 71.5012L65.1482 71.5218L65.1136 71.4763L65.0781 71.4304Z" fill="black"/>
</svg>
