<svg width="107" height="105" viewBox="0 0 107 105" fill="none" xmlns="http://www.w3.org/2000/svg">
<path fill-rule="evenodd" clip-rule="evenodd" d="M53.5 0L62.934 29.0348L83.1199 14.3034L75.3632 38.3495H106.284L81.9033 56.0629L101.402 70.1664L76.3158 70.2197L86.1221 100.4L61.1902 82.2863L53.9225 104.816L46.4072 81.8523L20.8779 100.4L30.6528 70.3165L6.29655 70.3682L25.4985 56.3548L0.716362 38.3495H32.1702L24.3415 14.4281L44.1554 28.7596L53.5 0ZM74 55.5C74 66.8218 65.0457 76 54 76C42.9543 76 34 66.8218 34 55.5C34 44.1782 42.9543 35 54 35C65.0457 35 74 44.1782 74 55.5ZM71 55.5C71 64.6127 63.6127 72 54.5 72C45.3873 72 38 64.6127 38 55.5C38 46.3873 45.3873 39 54.5 39C63.6127 39 71 46.3873 71 55.5Z" fill="white"/>
</svg>
