<svg id="visual" viewBox="0 0 960 300" width="960" height="300" xmlns="http://www.w3.org/2000/svg" xmlns:xlink="http://www.w3.org/1999/xlink" version="1.1"><rect x="0" y="0" width="960" height="300" fill="#eff0f5"></rect><path d="M0 110L22.8 107.3C45.7 104.7 91.3 99.3 137 94C182.7 88.7 228.3 83.3 274 84C319.7 84.7 365.3 91.3 411.2 95.3C457 99.3 503 100.7 548.8 98C594.7 95.3 640.3 88.7 686 90.8C731.7 93 777.3 104 823 103.7C868.7 103.3 914.3 91.7 937.2 85.8L960 80L960 0L937.2 0C914.3 0 868.7 0 823 0C777.3 0 731.7 0 686 0C640.3 0 594.7 0 548.8 0C503 0 457 0 411.2 0C365.3 0 319.7 0 274 0C228.3 0 182.7 0 137 0C91.3 0 45.7 0 22.8 0L0 0Z" fill="#eff0f5"></path><path d="M0 81L22.8 84.2C45.7 87.3 91.3 93.7 137 92.7C182.7 91.7 228.3 83.3 274 78.7C319.7 74 365.3 73 411.2 72.2C457 71.3 503 70.7 548.8 74.5C594.7 78.3 640.3 86.7 686 86.7C731.7 86.7 777.3 78.3 823 75.8C868.7 73.3 914.3 76.7 937.2 78.3L960 80L960 0L937.2 0C914.3 0 868.7 0 823 0C777.3 0 731.7 0 686 0C640.3 0 594.7 0 548.8 0C503 0 457 0 411.2 0C365.3 0 319.7 0 274 0C228.3 0 182.7 0 137 0C91.3 0 45.7 0 22.8 0L0 0Z" fill="#c7cfed"></path><path d="M0 79L22.8 73C45.7 67 91.3 55 137 49C182.7 43 228.3 43 274 46.5C319.7 50 365.3 57 411.2 61.8C457 66.7 503 69.3 548.8 69.2C594.7 69 640.3 66 686 64C731.7 62 777.3 61 823 60.8C868.7 60.7 914.3 61.3 937.2 61.7L960 62L960 0L937.2 0C914.3 0 868.7 0 823 0C777.3 0 731.7 0 686 0C640.3 0 594.7 0 548.8 0C503 0 457 0 411.2 0C365.3 0 319.7 0 274 0C228.3 0 182.7 0 137 0C91.3 0 45.7 0 22.8 0L0 0Z" fill="#9db0e4"></path><path d="M0 55L22.8 52.2C45.7 49.3 91.3 43.7 137 42.2C182.7 40.7 228.3 43.3 274 44.8C319.7 46.3 365.3 46.7 411.2 47.2C457 47.7 503 48.3 548.8 46C594.7 43.7 640.3 38.3 686 35.5C731.7 32.7 777.3 32.3 823 33C868.7 33.7 914.3 35.3 937.2 36.2L960 37L960 0L937.2 0C914.3 0 868.7 0 823 0C777.3 0 731.7 0 686 0C640.3 0 594.7 0 548.8 0C503 0 457 0 411.2 0C365.3 0 319.7 0 274 0C228.3 0 182.7 0 137 0C91.3 0 45.7 0 22.8 0L0 0Z" fill="#6c92db"></path><path d="M0 17L22.8 20C45.7 23 91.3 29 137 30.5C182.7 32 228.3 29 274 26C319.7 23 365.3 20 411.2 20.7C457 21.3 503 25.7 548.8 28.7C594.7 31.7 640.3 33.3 686 30.7C731.7 28 777.3 21 823 21C868.7 21 914.3 28 937.2 31.5L960 35L960 0L937.2 0C914.3 0 868.7 0 823 0C777.3 0 731.7 0 686 0C640.3 0 594.7 0 548.8 0C503 0 457 0 411.2 0C365.3 0 319.7 0 274 0C228.3 0 182.7 0 137 0C91.3 0 45.7 0 22.8 0L0 0Z" fill="#1976d2"></path></svg>