<svg id="visual" viewBox="0 0 960 300" width="960" height="300" xmlns="http://www.w3.org/2000/svg" xmlns:xlink="http://www.w3.org/1999/xlink" version="1.1"><rect x="0" y="0" width="960" height="300" fill="#000"></rect><path d="M0 188L22.8 190.7C45.7 193.3 91.3 198.7 137 204C182.7 209.3 228.3 214.7 274 214C319.7 213.3 365.3 206.7 411.2 202.7C457 198.7 503 197.3 548.8 200C594.7 202.7 640.3 209.3 686 207.2C731.7 205 777.3 194 823 194.3C868.7 194.7 914.3 206.3 937.2 212.2L960 218L960 301L937.2 301C914.3 301 868.7 301 823 301C777.3 301 731.7 301 686 301C640.3 301 594.7 301 548.8 301C503 301 457 301 411.2 301C365.3 301 319.7 301 274 301C228.3 301 182.7 301 137 301C91.3 301 45.7 301 22.8 301L0 301Z" fill="#333333"></path><path d="M0 217L22.8 213.8C45.7 210.7 91.3 204.3 137 205.3C182.7 206.3 228.3 214.7 274 219.3C319.7 224 365.3 225 411.2 225.8C457 226.7 503 227.3 548.8 223.5C594.7 219.7 640.3 211.3 686 211.3C731.7 211.3 777.3 219.7 823 222.2C868.7 224.7 914.3 221.3 937.2 219.7L960 218L960 301L937.2 301C914.3 301 868.7 301 823 301C777.3 301 731.7 301 686 301C640.3 301 594.7 301 548.8 301C503 301 457 301 411.2 301C365.3 301 319.7 301 274 301C228.3 301 182.7 301 137 301C91.3 301 45.7 301 22.8 301L0 301Z" fill="#425341"></path><path d="M0 219L22.8 225C45.7 231 91.3 243 137 249C182.7 255 228.3 255 274 251.5C319.7 248 365.3 241 411.2 236.2C457 231.3 503 228.7 548.8 228.8C594.7 229 640.3 232 686 234C731.7 236 777.3 237 823 237.2C868.7 237.3 914.3 236.7 937.2 236.3L960 236L960 301L937.2 301C914.3 301 868.7 301 823 301C777.3 301 731.7 301 686 301C640.3 301 594.7 301 548.8 301C503 301 457 301 411.2 301C365.3 301 319.7 301 274 301C228.3 301 182.7 301 137 301C91.3 301 45.7 301 22.8 301L0 301Z" fill="#4f744e"></path><path d="M0 243L22.8 245.8C45.7 248.7 91.3 254.3 137 255.8C182.7 257.3 228.3 254.7 274 253.2C319.7 251.7 365.3 251.3 411.2 250.8C457 250.3 503 249.7 548.8 252C594.7 254.3 640.3 259.7 686 262.5C731.7 265.3 777.3 265.7 823 265C868.7 264.3 914.3 262.7 937.2 261.8L960 261L960 301L937.2 301C914.3 301 868.7 301 823 301C777.3 301 731.7 301 686 301C640.3 301 594.7 301 548.8 301C503 301 457 301 411.2 301C365.3 301 319.7 301 274 301C228.3 301 182.7 301 137 301C91.3 301 45.7 301 22.8 301L0 301Z" fill="#5b975c"></path><path d="M0 281L22.8 278C45.7 275 91.3 269 137 267.5C182.7 266 228.3 269 274 272C319.7 275 365.3 278 411.2 277.3C457 276.7 503 272.3 548.8 269.3C594.7 266.3 640.3 264.7 686 267.3C731.7 270 777.3 277 823 277C868.7 277 914.3 270 937.2 266.5L960 263L960 301L937.2 301C914.3 301 868.7 301 823 301C777.3 301 731.7 301 686 301C640.3 301 594.7 301 548.8 301C503 301 457 301 411.2 301C365.3 301 319.7 301 274 301C228.3 301 182.7 301 137 301C91.3 301 45.7 301 22.8 301L0 301Z" fill="#66bb6a"></path></svg>